<?xml version="1.0" encoding="UTF-8" standalone="no"?>
<!DOCTYPE svg PUBLIC "-//W3C//DTD SVG 1.1//EN"
 "http://www.w3.org/Graphics/SVG/1.1/DTD/svg11.dtd">
<!-- Generated by graphviz version 5.0.0 (20220707.1540)
 -->
<!-- Title: dependencies Pages: 1 -->
<svg width="474pt" height="174pt"
 viewBox="0.00 0.00 474.00 173.80" xmlns="http://www.w3.org/2000/svg" xmlns:xlink="http://www.w3.org/1999/xlink">
<g id="graph0" class="graph" transform="scale(1 1) rotate(0) translate(4 169.8)">
<title>dependencies</title>
<polygon fill="white" stroke="transparent" points="-4,4 -4,-169.8 470,-169.8 470,4 -4,4"/>
<text text-anchor="middle" x="233" y="-8.2" font-family="sans-serif" font-size="14.00">dependencies</text>
<g id="clust1" class="cluster">
<title>cluster_BankAccountModule</title>
<polygon fill="none" stroke="black" stroke-dasharray="1,5" points="8,-32.8 8,-157.8 458,-157.8 458,-32.8 8,-32.8"/>
</g>
<g id="clust6" class="cluster">
<title>cluster_BankAccountModule_providers</title>
<polygon fill="none" stroke="black" points="248,-40.8 248,-92.8 450,-92.8 450,-40.8 248,-40.8"/>
</g>
<g id="clust3" class="cluster">
<title>cluster_BankAccountModule_imports</title>
<polygon fill="none" stroke="black" points="16,-40.8 16,-92.8 240,-92.8 240,-40.8 16,-40.8"/>
</g>
<!-- PrismaModule -->
<g id="node1" class="node">
<title>PrismaModule</title>
<polygon fill="#8dd3c7" stroke="black" points="232.44,-84.8 229.44,-88.8 208.44,-88.8 205.44,-84.8 133.56,-84.8 133.56,-48.8 232.44,-48.8 232.44,-84.8"/>
<text text-anchor="middle" x="183" y="-62.6" font-family="Times,serif" font-size="14.00">PrismaModule</text>
</g>
<!-- BankAccountModule -->
<g id="node3" class="node">
<title>BankAccountModule</title>
<polygon fill="#8dd3c7" stroke="black" points="251.03,-149.8 248.03,-153.8 227.03,-153.8 224.03,-149.8 114.97,-149.8 114.97,-113.8 251.03,-113.8 251.03,-149.8"/>
<text text-anchor="middle" x="183" y="-127.6" font-family="Times,serif" font-size="14.00">BankAccountModule</text>
</g>
<!-- PrismaModule&#45;&gt;BankAccountModule -->
<g id="edge1" class="edge">
<title>PrismaModule&#45;&gt;BankAccountModule</title>
<path fill="none" stroke="black" d="M183,-84.91C183,-84.91 183,-103.79 183,-103.79"/>
<polygon fill="black" stroke="black" points="179.5,-103.79 183,-113.79 186.5,-103.79 179.5,-103.79"/>
</g>
<!-- UsersModule -->
<g id="node2" class="node">
<title>UsersModule</title>
<polygon fill="#8dd3c7" stroke="black" points="115.94,-84.8 112.94,-88.8 91.94,-88.8 88.94,-84.8 24.06,-84.8 24.06,-48.8 115.94,-48.8 115.94,-84.8"/>
<text text-anchor="middle" x="70" y="-62.6" font-family="Times,serif" font-size="14.00">UsersModule</text>
</g>
<!-- UsersModule&#45;&gt;BankAccountModule -->
<g id="edge2" class="edge">
<title>UsersModule&#45;&gt;BankAccountModule</title>
<path fill="none" stroke="black" d="M116.19,-66.8C121.33,-66.8 124.75,-66.8 124.75,-66.8 124.75,-66.8 124.75,-103.69 124.75,-103.69"/>
<polygon fill="black" stroke="black" points="121.25,-103.69 124.75,-113.69 128.25,-103.69 121.25,-103.69"/>
</g>
<!-- BankAccountService -->
<g id="node4" class="node">
<title>BankAccountService</title>
<ellipse fill="#fdb462" stroke="black" cx="349" cy="-66.8" rx="93.18" ry="18"/>
<text text-anchor="middle" x="349" y="-62.6" font-family="Times,serif" font-size="14.00">BankAccountService</text>
</g>
<!-- BankAccountService&#45;&gt;BankAccountModule -->
<g id="edge3" class="edge">
<title>BankAccountService&#45;&gt;BankAccountModule</title>
<path fill="none" stroke="black" d="M255.77,-66.8C247.25,-66.8 241.74,-66.8 241.74,-66.8 241.74,-66.8 241.74,-103.69 241.74,-103.69"/>
<polygon fill="black" stroke="black" points="238.24,-103.69 241.74,-113.69 245.24,-103.69 238.24,-103.69"/>
</g>
</g>
</svg>
