<?xml version="1.0" encoding="UTF-8" standalone="no"?>
<!DOCTYPE svg PUBLIC "-//W3C//DTD SVG 1.1//EN"
 "http://www.w3.org/Graphics/SVG/1.1/DTD/svg11.dtd">
<!-- Generated by graphviz version 5.0.0 (20220707.1540)
 -->
<!-- Title: dependencies Pages: 1 -->
<svg width="1143pt" height="250pt"
 viewBox="0.00 0.00 1143.00 249.80" xmlns="http://www.w3.org/2000/svg" xmlns:xlink="http://www.w3.org/1999/xlink">
<g id="graph0" class="graph" transform="scale(1 1) rotate(0) translate(4 245.8)">
<title>dependencies</title>
<polygon fill="white" stroke="transparent" points="-4,4 -4,-245.8 1139,-245.8 1139,4 -4,4"/>
<text text-anchor="middle" x="567.5" y="-8.2" font-family="sans-serif" font-size="14.00">dependencies</text>
<g id="clust1" class="cluster">
<title>cluster_AppModule</title>
<polygon fill="none" stroke="black" stroke-dasharray="1,5" points="148,-108.8 148,-233.8 711,-233.8 711,-108.8 148,-108.8"/>
</g>
<g id="clust3" class="cluster">
<title>cluster_AppModule_imports</title>
<polygon fill="none" stroke="black" points="445,-116.8 445,-168.8 703,-168.8 703,-116.8 445,-116.8"/>
</g>
<g id="clust6" class="cluster">
<title>cluster_AppModule_providers</title>
<polygon fill="none" stroke="black" points="156,-116.8 156,-168.8 437,-168.8 437,-116.8 156,-116.8"/>
</g>
<g id="clust7" class="cluster">
<title>cluster_AuthModule</title>
<polygon fill="none" stroke="black" stroke-dasharray="1,5" points="466,-32.8 466,-100.8 1127,-100.8 1127,-32.8 466,-32.8"/>
</g>
<g id="clust9" class="cluster">
<title>cluster_AuthModule_imports</title>
<polygon fill="none" stroke="black" points="474,-40.8 474,-92.8 582,-92.8 582,-40.8 474,-40.8"/>
</g>
<g id="clust10" class="cluster">
<title>cluster_AuthModule_exports</title>
<polygon fill="none" stroke="black" points="590,-40.8 590,-92.8 696,-92.8 696,-40.8 590,-40.8"/>
</g>
<g id="clust12" class="cluster">
<title>cluster_AuthModule_providers</title>
<polygon fill="none" stroke="black" points="704,-40.8 704,-92.8 1119,-92.8 1119,-40.8 704,-40.8"/>
</g>
<g id="clust13" class="cluster">
<title>cluster_BankAccountModule</title>
<polygon fill="none" stroke="black" stroke-dasharray="1,5" points="118,-32.8 118,-100.8 458,-100.8 458,-32.8 118,-32.8"/>
</g>
<g id="clust15" class="cluster">
<title>cluster_BankAccountModule_imports</title>
<polygon fill="none" stroke="black" points="126,-40.8 126,-92.8 240,-92.8 240,-40.8 126,-40.8"/>
</g>
<g id="clust18" class="cluster">
<title>cluster_BankAccountModule_providers</title>
<polygon fill="none" stroke="black" points="248,-40.8 248,-92.8 450,-92.8 450,-40.8 248,-40.8"/>
</g>
<g id="clust19" class="cluster">
<title>cluster_PrismaModule</title>
<polygon fill="none" stroke="black" stroke-dasharray="1,5" points="8,-108.8 8,-176.8 140,-176.8 140,-108.8 8,-108.8"/>
</g>
<g id="clust22" class="cluster">
<title>cluster_PrismaModule_exports</title>
<polygon fill="none" stroke="black" points="16,-116.8 16,-168.8 132,-168.8 132,-116.8 16,-116.8"/>
</g>
<g id="clust25" class="cluster">
<title>cluster_UsersModule</title>
<polygon fill="none" stroke="black" stroke-dasharray="1,5" points="719,-108.8 719,-176.8 993,-176.8 993,-108.8 719,-108.8"/>
</g>
<g id="clust28" class="cluster">
<title>cluster_UsersModule_exports</title>
<polygon fill="none" stroke="black" points="875,-116.8 875,-168.8 985,-168.8 985,-116.8 875,-116.8"/>
</g>
<g id="clust30" class="cluster">
<title>cluster_UsersModule_providers</title>
<polygon fill="none" stroke="black" points="727,-116.8 727,-168.8 867,-168.8 867,-116.8 727,-116.8"/>
</g>
<!-- AuthModule -->
<g id="node1" class="node">
<title>AuthModule</title>
<polygon fill="#8dd3c7" stroke="black" points="694.55,-160.8 691.55,-164.8 670.55,-164.8 667.55,-160.8 607.45,-160.8 607.45,-124.8 694.55,-124.8 694.55,-160.8"/>
<text text-anchor="middle" x="651" y="-138.6" font-family="Times,serif" font-size="14.00">AuthModule</text>
</g>
<!-- AppModule -->
<g id="node3" class="node">
<title>AppModule</title>
<polygon fill="#8dd3c7" stroke="black" points="487.66,-225.8 484.66,-229.8 463.66,-229.8 460.66,-225.8 404.34,-225.8 404.34,-189.8 487.66,-189.8 487.66,-225.8"/>
<text text-anchor="middle" x="446" y="-203.6" font-family="Times,serif" font-size="14.00">AppModule</text>
</g>
<!-- AuthModule&#45;&gt;AppModule -->
<g id="edge1" class="edge">
<title>AuthModule&#45;&gt;AppModule</title>
<path fill="none" stroke="black" d="M651,-160.91C651,-180.14 651,-207.8 651,-207.8 651,-207.8 497.98,-207.8 497.98,-207.8"/>
<polygon fill="black" stroke="black" points="497.98,-204.3 487.98,-207.8 497.98,-211.3 497.98,-204.3"/>
</g>
<!-- AuthService  -->
<g id="node7" class="node">
<title>AuthService </title>
<polygon fill="#fb8072" stroke="black" points="687.98,-84.8 598.02,-84.8 598.02,-48.8 687.98,-48.8 687.98,-84.8"/>
<text text-anchor="middle" x="643" y="-62.6" font-family="Times,serif" font-size="14.00">AuthService </text>
</g>
<!-- AuthModule&#45;&gt;AuthService  -->
<g id="edge6" class="edge">
<title>AuthModule&#45;&gt;AuthService </title>
<path fill="none" stroke="black" stroke-dasharray="5,2" d="M634.06,-124.79C634.06,-124.79 634.06,-94.95 634.06,-94.95"/>
<polygon fill="black" stroke="black" points="637.56,-94.95 634.06,-84.95 630.56,-94.95 637.56,-94.95"/>
</g>
<!-- BankAccountModule -->
<g id="node2" class="node">
<title>BankAccountModule</title>
<polygon fill="#8dd3c7" stroke="black" points="589.03,-160.8 586.03,-164.8 565.03,-164.8 562.03,-160.8 452.97,-160.8 452.97,-124.8 589.03,-124.8 589.03,-160.8"/>
<text text-anchor="middle" x="521" y="-138.6" font-family="Times,serif" font-size="14.00">BankAccountModule</text>
</g>
<!-- BankAccountModule&#45;&gt;AppModule -->
<g id="edge2" class="edge">
<title>BankAccountModule&#45;&gt;AppModule</title>
<path fill="none" stroke="black" d="M470.28,-160.91C470.28,-160.91 470.28,-179.79 470.28,-179.79"/>
<polygon fill="black" stroke="black" points="466.78,-179.79 470.28,-189.79 473.78,-179.79 466.78,-179.79"/>
</g>
<!-- AppService -->
<g id="node4" class="node">
<title>AppService</title>
<ellipse fill="#fdb462" stroke="black" cx="372" cy="-142.8" rx="56.75" ry="18"/>
<text text-anchor="middle" x="372" y="-138.6" font-family="Times,serif" font-size="14.00">AppService</text>
</g>
<!-- AppService&#45;&gt;AppModule -->
<g id="edge3" class="edge">
<title>AppService&#45;&gt;AppModule</title>
<path fill="none" stroke="black" d="M416.4,-154.12C416.4,-154.12 416.4,-179.74 416.4,-179.74"/>
<polygon fill="black" stroke="black" points="412.9,-179.74 416.4,-189.74 419.9,-179.74 412.9,-179.74"/>
</g>
<!-- PrismaService -->
<g id="node5" class="node">
<title>PrismaService</title>
<ellipse fill="#fdb462" stroke="black" cx="231" cy="-142.8" rx="66.64" ry="18"/>
<text text-anchor="middle" x="231" y="-138.6" font-family="Times,serif" font-size="14.00">PrismaService</text>
</g>
<!-- PrismaService&#45;&gt;AppModule -->
<g id="edge4" class="edge">
<title>PrismaService&#45;&gt;AppModule</title>
<path fill="none" stroke="black" d="M231,-160.91C231,-180.14 231,-207.8 231,-207.8 231,-207.8 394.29,-207.8 394.29,-207.8"/>
<polygon fill="black" stroke="black" points="394.29,-211.3 404.29,-207.8 394.29,-204.3 394.29,-211.3"/>
</g>
<!-- UsersModule -->
<g id="node6" class="node">
<title>UsersModule</title>
<polygon fill="#8dd3c7" stroke="black" points="573.94,-84.8 570.94,-88.8 549.94,-88.8 546.94,-84.8 482.06,-84.8 482.06,-48.8 573.94,-48.8 573.94,-84.8"/>
<text text-anchor="middle" x="528" y="-62.6" font-family="Times,serif" font-size="14.00">UsersModule</text>
</g>
<!-- PrismaService&#45;&gt;UsersModule -->
<g id="edge17" class="edge">
<title>PrismaService&#45;&gt;UsersModule</title>
<path fill="none" stroke="black" d="M276.86,-129.38C276.86,-120.24 276.86,-109.8 276.86,-109.8 276.86,-109.8 512.76,-109.8 512.76,-109.8 512.76,-109.8 512.76,-95.29 512.76,-95.29"/>
<polygon fill="black" stroke="black" points="516.26,-95.29 512.76,-85.29 509.26,-95.29 516.26,-95.29"/>
</g>
<!-- PrismaModule -->
<g id="node11" class="node">
<title>PrismaModule</title>
<polygon fill="#8dd3c7" stroke="black" points="232.44,-84.8 229.44,-88.8 208.44,-88.8 205.44,-84.8 133.56,-84.8 133.56,-48.8 232.44,-48.8 232.44,-84.8"/>
<text text-anchor="middle" x="183" y="-62.6" font-family="Times,serif" font-size="14.00">PrismaModule</text>
</g>
<!-- PrismaService&#45;&gt;PrismaModule -->
<g id="edge14" class="edge">
<title>PrismaService&#45;&gt;PrismaModule</title>
<path fill="none" stroke="black" d="M186.86,-129.21C186.86,-129.21 186.86,-94.84 186.86,-94.84"/>
<polygon fill="black" stroke="black" points="190.36,-94.84 186.86,-84.84 183.36,-94.84 190.36,-94.84"/>
</g>
<!-- UsersModule&#45;&gt;AuthModule -->
<g id="edge5" class="edge">
<title>UsersModule&#45;&gt;AuthModule</title>
<path fill="none" stroke="black" d="M574.03,-66.8C585.08,-66.8 593.76,-66.8 593.76,-66.8 593.76,-66.8 593.76,-142.8 593.76,-142.8 593.76,-142.8 597.33,-142.8 597.33,-142.8"/>
<polygon fill="black" stroke="black" points="597.33,-146.3 607.33,-142.8 597.33,-139.3 597.33,-146.3"/>
</g>
<!-- UsersModule&#45;&gt;BankAccountModule -->
<g id="edge11" class="edge">
<title>UsersModule&#45;&gt;BankAccountModule</title>
<path fill="none" stroke="black" d="M528,-84.81C528,-84.81 528,-114.65 528,-114.65"/>
<polygon fill="black" stroke="black" points="524.5,-114.65 528,-124.65 531.5,-114.65 524.5,-114.65"/>
</g>
<!-- PrismaService  -->
<g id="node13" class="node">
<title>PrismaService </title>
<polygon fill="#fb8072" stroke="black" points="124.37,-160.8 23.63,-160.8 23.63,-124.8 124.37,-124.8 124.37,-160.8"/>
<text text-anchor="middle" x="74" y="-138.6" font-family="Times,serif" font-size="14.00">PrismaService </text>
</g>
<!-- UsersModule&#45;&gt;PrismaService  -->
<g id="edge15" class="edge">
<title>UsersModule&#45;&gt;PrismaService </title>
<path fill="none" stroke="black" stroke-dasharray="5,2" d="M497.52,-84.92C497.52,-87.77 497.52,-89.8 497.52,-89.8 497.52,-89.8 74,-89.8 74,-89.8 74,-89.8 74,-114.56 74,-114.56"/>
<polygon fill="black" stroke="black" points="70.5,-114.56 74,-124.56 77.5,-114.56 70.5,-114.56"/>
</g>
<!-- UsersService  -->
<g id="node14" class="node">
<title>UsersService </title>
<polygon fill="#fb8072" stroke="black" points="976.86,-160.8 883.14,-160.8 883.14,-124.8 976.86,-124.8 976.86,-160.8"/>
<text text-anchor="middle" x="930" y="-138.6" font-family="Times,serif" font-size="14.00">UsersService </text>
</g>
<!-- UsersModule&#45;&gt;UsersService  -->
<g id="edge16" class="edge">
<title>UsersModule&#45;&gt;UsersService </title>
<path fill="none" stroke="black" stroke-dasharray="5,2" d="M543.24,-84.84C543.24,-92.55 543.24,-99.8 543.24,-99.8 543.24,-99.8 930,-99.8 930,-99.8 930,-99.8 930,-114.31 930,-114.31"/>
<polygon fill="black" stroke="black" points="926.5,-114.31 930,-124.31 933.5,-114.31 926.5,-114.31"/>
</g>
<!-- AuthService -->
<g id="node8" class="node">
<title>AuthService</title>
<ellipse fill="#fdb462" stroke="black" cx="771" cy="-66.8" rx="59.11" ry="18"/>
<text text-anchor="middle" x="771" y="-62.6" font-family="Times,serif" font-size="14.00">AuthService</text>
</g>
<!-- AuthService&#45;&gt;AuthModule -->
<g id="edge7" class="edge">
<title>AuthService&#45;&gt;AuthModule</title>
<path fill="none" stroke="black" d="M711.34,-66.8C699.22,-66.8 690.09,-66.8 690.09,-66.8 690.09,-66.8 690.09,-114.79 690.09,-114.79"/>
<polygon fill="black" stroke="black" points="686.59,-114.79 690.09,-124.79 693.59,-114.79 686.59,-114.79"/>
</g>
<!-- JwtStrategy -->
<g id="node9" class="node">
<title>JwtStrategy</title>
<ellipse fill="#fdb462" stroke="black" cx="1054" cy="-66.8" rx="56.77" ry="18"/>
<text text-anchor="middle" x="1054" y="-62.6" font-family="Times,serif" font-size="14.00">JwtStrategy</text>
</g>
<!-- JwtStrategy&#45;&gt;AuthModule -->
<g id="edge8" class="edge">
<title>JwtStrategy&#45;&gt;AuthModule</title>
<path fill="none" stroke="black" d="M1054,-85.01C1054,-90.35 1054,-94.8 1054,-94.8 1054,-94.8 660.9,-94.8 660.9,-94.8 660.9,-94.8 660.9,-114.65 660.9,-114.65"/>
<polygon fill="black" stroke="black" points="657.4,-114.65 660.9,-124.65 664.4,-114.65 657.4,-114.65"/>
</g>
<!-- LocalStrategy -->
<g id="node10" class="node">
<title>LocalStrategy</title>
<ellipse fill="#fdb462" stroke="black" cx="914" cy="-66.8" rx="65.4" ry="18"/>
<text text-anchor="middle" x="914" y="-62.6" font-family="Times,serif" font-size="14.00">LocalStrategy</text>
</g>
<!-- LocalStrategy&#45;&gt;AuthModule -->
<g id="edge9" class="edge">
<title>LocalStrategy&#45;&gt;AuthModule</title>
<path fill="none" stroke="black" d="M853.89,-74.17C853.89,-88.73 853.89,-119.8 853.89,-119.8 853.89,-119.8 692.43,-119.8 692.43,-119.8 692.43,-119.8 692.43,-120.29 692.43,-120.29"/>
<polygon fill="black" stroke="black" points="688.93,-114.68 692.43,-124.68 695.93,-114.68 688.93,-114.68"/>
</g>
<!-- PrismaModule&#45;&gt;BankAccountModule -->
<g id="edge10" class="edge">
<title>PrismaModule&#45;&gt;BankAccountModule</title>
<path fill="none" stroke="black" d="M209.54,-84.91C209.54,-94.7 209.54,-104.8 209.54,-104.8 209.54,-104.8 467.51,-104.8 467.51,-104.8 467.51,-104.8 467.51,-114.69 467.51,-114.69"/>
<polygon fill="black" stroke="black" points="464.01,-114.69 467.51,-124.69 471.01,-114.69 464.01,-114.69"/>
</g>
<!-- PrismaModule&#45;&gt;PrismaService  -->
<g id="edge13" class="edge">
<title>PrismaModule&#45;&gt;PrismaService </title>
<path fill="none" stroke="black" stroke-dasharray="5,2" d="M148.98,-84.81C148.98,-107.29 148.98,-142.8 148.98,-142.8 148.98,-142.8 134.43,-142.8 134.43,-142.8"/>
<polygon fill="black" stroke="black" points="134.43,-139.3 124.43,-142.8 134.43,-146.3 134.43,-139.3"/>
</g>
<!-- BankAccountService -->
<g id="node12" class="node">
<title>BankAccountService</title>
<ellipse fill="#fdb462" stroke="black" cx="349" cy="-66.8" rx="93.18" ry="18"/>
<text text-anchor="middle" x="349" y="-62.6" font-family="Times,serif" font-size="14.00">BankAccountService</text>
</g>
<!-- BankAccountService&#45;&gt;BankAccountModule -->
<g id="edge12" class="edge">
<title>BankAccountService&#45;&gt;BankAccountModule</title>
<path fill="none" stroke="black" d="M435.36,-73.54C435.36,-92.14 435.36,-142.8 435.36,-142.8 435.36,-142.8 442.69,-142.8 442.69,-142.8"/>
<polygon fill="black" stroke="black" points="442.69,-146.3 452.69,-142.8 442.69,-139.3 442.69,-146.3"/>
</g>
<!-- UsersService -->
<g id="node15" class="node">
<title>UsersService</title>
<ellipse fill="#fdb462" stroke="black" cx="797" cy="-142.8" rx="61.97" ry="18"/>
<text text-anchor="middle" x="797" y="-138.6" font-family="Times,serif" font-size="14.00">UsersService</text>
</g>
<!-- UsersService&#45;&gt;UsersModule -->
<g id="edge18" class="edge">
<title>UsersService&#45;&gt;UsersModule</title>
<path fill="none" stroke="black" d="M782.66,-125.23C782.66,-119.6 782.66,-114.8 782.66,-114.8 782.66,-114.8 558.48,-114.8 558.48,-114.8 558.48,-114.8 558.48,-94.95 558.48,-94.95"/>
<polygon fill="black" stroke="black" points="561.98,-94.95 558.48,-84.95 554.98,-94.95 561.98,-94.95"/>
</g>
</g>
</svg>
