<?xml version="1.0" encoding="UTF-8" standalone="no"?>
<!DOCTYPE svg PUBLIC "-//W3C//DTD SVG 1.1//EN"
 "http://www.w3.org/Graphics/SVG/1.1/DTD/svg11.dtd">
<!-- Generated by graphviz version 5.0.0 (20220707.1540)
 -->
<!-- Title: dependencies Pages: 1 -->
<svg width="587pt" height="174pt"
 viewBox="0.00 0.00 587.00 173.80" xmlns="http://www.w3.org/2000/svg" xmlns:xlink="http://www.w3.org/1999/xlink">
<g id="graph0" class="graph" transform="scale(1 1) rotate(0) translate(4 169.8)">
<title>dependencies</title>
<polygon fill="white" stroke="transparent" points="-4,4 -4,-169.8 583,-169.8 583,4 -4,4"/>
<text text-anchor="middle" x="289.5" y="-8.2" font-family="sans-serif" font-size="14.00">dependencies</text>
<g id="clust1" class="cluster">
<title>cluster_AppModule</title>
<polygon fill="none" stroke="black" stroke-dasharray="1,5" points="8,-32.8 8,-157.8 571,-157.8 571,-32.8 8,-32.8"/>
</g>
<g id="clust3" class="cluster">
<title>cluster_AppModule_imports</title>
<polygon fill="none" stroke="black" points="305,-40.8 305,-92.8 563,-92.8 563,-40.8 305,-40.8"/>
</g>
<g id="clust6" class="cluster">
<title>cluster_AppModule_providers</title>
<polygon fill="none" stroke="black" points="16,-40.8 16,-92.8 297,-92.8 297,-40.8 16,-40.8"/>
</g>
<!-- AuthModule -->
<g id="node1" class="node">
<title>AuthModule</title>
<polygon fill="#8dd3c7" stroke="black" points="554.55,-84.8 551.55,-88.8 530.55,-88.8 527.55,-84.8 467.45,-84.8 467.45,-48.8 554.55,-48.8 554.55,-84.8"/>
<text text-anchor="middle" x="511" y="-62.6" font-family="Times,serif" font-size="14.00">AuthModule</text>
</g>
<!-- AppModule -->
<g id="node3" class="node">
<title>AppModule</title>
<polygon fill="#8dd3c7" stroke="black" points="347.66,-149.8 344.66,-153.8 323.66,-153.8 320.66,-149.8 264.34,-149.8 264.34,-113.8 347.66,-113.8 347.66,-149.8"/>
<text text-anchor="middle" x="306" y="-127.6" font-family="Times,serif" font-size="14.00">AppModule</text>
</g>
<!-- AuthModule&#45;&gt;AppModule -->
<g id="edge1" class="edge">
<title>AuthModule&#45;&gt;AppModule</title>
<path fill="none" stroke="black" d="M511,-84.91C511,-104.14 511,-131.8 511,-131.8 511,-131.8 357.98,-131.8 357.98,-131.8"/>
<polygon fill="black" stroke="black" points="357.98,-128.3 347.98,-131.8 357.98,-135.3 357.98,-128.3"/>
</g>
<!-- BankAccountModule -->
<g id="node2" class="node">
<title>BankAccountModule</title>
<polygon fill="#8dd3c7" stroke="black" points="449.03,-84.8 446.03,-88.8 425.03,-88.8 422.03,-84.8 312.97,-84.8 312.97,-48.8 449.03,-48.8 449.03,-84.8"/>
<text text-anchor="middle" x="381" y="-62.6" font-family="Times,serif" font-size="14.00">BankAccountModule</text>
</g>
<!-- BankAccountModule&#45;&gt;AppModule -->
<g id="edge2" class="edge">
<title>BankAccountModule&#45;&gt;AppModule</title>
<path fill="none" stroke="black" d="M330.28,-84.91C330.28,-84.91 330.28,-103.79 330.28,-103.79"/>
<polygon fill="black" stroke="black" points="326.78,-103.79 330.28,-113.79 333.78,-103.79 326.78,-103.79"/>
</g>
<!-- AppService -->
<g id="node4" class="node">
<title>AppService</title>
<ellipse fill="#fdb462" stroke="black" cx="232" cy="-66.8" rx="56.75" ry="18"/>
<text text-anchor="middle" x="232" y="-62.6" font-family="Times,serif" font-size="14.00">AppService</text>
</g>
<!-- AppService&#45;&gt;AppModule -->
<g id="edge3" class="edge">
<title>AppService&#45;&gt;AppModule</title>
<path fill="none" stroke="black" d="M276.4,-78.12C276.4,-78.12 276.4,-103.74 276.4,-103.74"/>
<polygon fill="black" stroke="black" points="272.9,-103.74 276.4,-113.74 279.9,-103.74 272.9,-103.74"/>
</g>
<!-- PrismaService -->
<g id="node5" class="node">
<title>PrismaService</title>
<ellipse fill="#fdb462" stroke="black" cx="91" cy="-66.8" rx="66.64" ry="18"/>
<text text-anchor="middle" x="91" y="-62.6" font-family="Times,serif" font-size="14.00">PrismaService</text>
</g>
<!-- PrismaService&#45;&gt;AppModule -->
<g id="edge4" class="edge">
<title>PrismaService&#45;&gt;AppModule</title>
<path fill="none" stroke="black" d="M91,-84.91C91,-104.14 91,-131.8 91,-131.8 91,-131.8 254.29,-131.8 254.29,-131.8"/>
<polygon fill="black" stroke="black" points="254.29,-135.3 264.29,-131.8 254.29,-128.3 254.29,-135.3"/>
</g>
</g>
</svg>
