<?xml version="1.0" encoding="UTF-8" standalone="no"?>
<!DOCTYPE svg PUBLIC "-//W3C//DTD SVG 1.1//EN"
 "http://www.w3.org/Graphics/SVG/1.1/DTD/svg11.dtd">
<!-- Generated by graphviz version 5.0.0 (20220707.1540)
 -->
<!-- Title: dependencies Pages: 1 -->
<svg width="332pt" height="247pt"
 viewBox="0.00 0.00 332.00 246.80" xmlns="http://www.w3.org/2000/svg" xmlns:xlink="http://www.w3.org/1999/xlink">
<g id="graph0" class="graph" transform="scale(1 1) rotate(0) translate(4 242.8)">
<title>dependencies</title>
<polygon fill="white" stroke="transparent" points="-4,4 -4,-242.8 328,-242.8 328,4 -4,4"/>
<text text-anchor="middle" x="162" y="-8.2" font-family="sans-serif" font-size="14.00">dependencies</text>
<g id="clust1" class="cluster">
<title>cluster_UsersModule</title>
<polygon fill="none" stroke="black" stroke-dasharray="1,5" points="8,-32.8 8,-230.8 316,-230.8 316,-32.8 8,-32.8"/>
</g>
<g id="clust6" class="cluster">
<title>cluster_UsersModule_providers</title>
<polygon fill="none" stroke="black" points="16,-40.8 16,-92.8 308,-92.8 308,-40.8 16,-40.8"/>
</g>
<g id="clust4" class="cluster">
<title>cluster_UsersModule_exports</title>
<polygon fill="none" stroke="black" points="36,-170.8 36,-222.8 264,-222.8 264,-170.8 36,-170.8"/>
</g>
<!-- PrismaService  -->
<g id="node1" class="node">
<title>PrismaService </title>
<polygon fill="#fb8072" stroke="black" points="256.37,-214.8 155.63,-214.8 155.63,-178.8 256.37,-178.8 256.37,-214.8"/>
<text text-anchor="middle" x="206" y="-192.6" font-family="Times,serif" font-size="14.00">PrismaService </text>
</g>
<!-- UsersService  -->
<g id="node2" class="node">
<title>UsersService </title>
<polygon fill="#fb8072" stroke="black" points="137.86,-214.8 44.14,-214.8 44.14,-178.8 137.86,-178.8 137.86,-214.8"/>
<text text-anchor="middle" x="91" y="-192.6" font-family="Times,serif" font-size="14.00">UsersService </text>
</g>
<!-- UsersModule -->
<g id="node3" class="node">
<title>UsersModule</title>
<polygon fill="#8dd3c7" stroke="black" points="155.94,-149.8 152.94,-153.8 131.94,-153.8 128.94,-149.8 64.06,-149.8 64.06,-113.8 155.94,-113.8 155.94,-149.8"/>
<text text-anchor="middle" x="110" y="-127.6" font-family="Times,serif" font-size="14.00">UsersModule</text>
</g>
<!-- UsersModule&#45;&gt;PrismaService  -->
<g id="edge1" class="edge">
<title>UsersModule&#45;&gt;PrismaService </title>
<path fill="none" stroke="black" stroke-dasharray="5,2" d="M155.92,-131.8C159.05,-131.8 161,-131.8 161,-131.8 161,-131.8 161,-168.69 161,-168.69"/>
<polygon fill="black" stroke="black" points="157.5,-168.69 161,-178.69 164.5,-168.69 157.5,-168.69"/>
</g>
<!-- UsersModule&#45;&gt;UsersService  -->
<g id="edge2" class="edge">
<title>UsersModule&#45;&gt;UsersService </title>
<path fill="none" stroke="black" stroke-dasharray="5,2" d="M100.98,-149.91C100.98,-149.91 100.98,-168.79 100.98,-168.79"/>
<polygon fill="black" stroke="black" points="97.48,-168.79 100.98,-178.79 104.48,-168.79 97.48,-168.79"/>
</g>
<!-- PrismaService -->
<g id="node4" class="node">
<title>PrismaService</title>
<ellipse fill="#fdb462" stroke="black" cx="233" cy="-66.8" rx="66.64" ry="18"/>
<text text-anchor="middle" x="233" y="-62.6" font-family="Times,serif" font-size="14.00">PrismaService</text>
</g>
<!-- PrismaService&#45;&gt;UsersModule -->
<g id="edge3" class="edge">
<title>PrismaService&#45;&gt;UsersModule</title>
<path fill="none" stroke="black" d="M165.99,-66.8C157.58,-66.8 151.85,-66.8 151.85,-66.8 151.85,-66.8 151.85,-103.69 151.85,-103.69"/>
<polygon fill="black" stroke="black" points="148.35,-103.69 151.85,-113.69 155.35,-103.69 148.35,-103.69"/>
</g>
<!-- UsersService -->
<g id="node5" class="node">
<title>UsersService</title>
<ellipse fill="#fdb462" stroke="black" cx="86" cy="-66.8" rx="61.97" ry="18"/>
<text text-anchor="middle" x="86" y="-62.6" font-family="Times,serif" font-size="14.00">UsersService</text>
</g>
<!-- UsersService&#45;&gt;UsersModule -->
<g id="edge4" class="edge">
<title>UsersService&#45;&gt;UsersModule</title>
<path fill="none" stroke="black" d="M106.13,-83.88C106.13,-83.88 106.13,-103.7 106.13,-103.7"/>
<polygon fill="black" stroke="black" points="102.63,-103.7 106.13,-113.7 109.63,-103.7 102.63,-103.7"/>
</g>
</g>
</svg>
